<mxfile host="65bd71144e">
    <diagram id="d-F59XG_Xvb3CcHUn9In" name="Page-1">
        <mxGraphModel dx="1578" dy="1109" grid="0" gridSize="10" guides="1" tooltips="1" connect="1" arrows="1" fold="1" page="1" pageScale="1" pageWidth="850" pageHeight="1100" background="none" math="0" shadow="0">
            <root>
                <mxCell id="0"/>
                <mxCell id="1" parent="0"/>
                <mxCell id="5" value="" style="rounded=1;whiteSpace=wrap;html=1;fontSize=16;fillColor=#f5f5f5;fontColor=#333333;strokeColor=#666666;arcSize=4;" parent="1" vertex="1">
                    <mxGeometry x="165" y="180" width="260" height="170" as="geometry"/>
                </mxCell>
                <mxCell id="3" value="Techonologies" style="text;html=1;strokeColor=none;fillColor=none;align=left;verticalAlign=middle;whiteSpace=wrap;rounded=0;fontSize=20;fontStyle=1" parent="1" vertex="1">
                    <mxGeometry x="165" y="120" width="240" height="50" as="geometry"/>
                </mxCell>
                <mxCell id="6" value="&lt;b&gt;NextJS &lt;/b&gt;&lt;br&gt;Typescript&lt;br&gt;Tailwind CSS" style="text;html=1;strokeColor=none;fillColor=none;align=left;verticalAlign=middle;whiteSpace=wrap;rounded=0;fontSize=12;" parent="1" vertex="1">
                    <mxGeometry x="175" y="190" width="220" height="40" as="geometry"/>
                </mxCell>
                <mxCell id="7" value="&lt;b&gt;MongoDB&lt;/b&gt;&lt;br&gt;docker" style="rounded=1;whiteSpace=wrap;html=1;fontSize=12;" parent="1" vertex="1">
                    <mxGeometry x="165" y="360" width="260" height="40" as="geometry"/>
                </mxCell>
                <mxCell id="8" value="Learning Module" style="text;html=1;strokeColor=none;fillColor=none;align=left;verticalAlign=middle;whiteSpace=wrap;rounded=0;fontSize=20;fontStyle=1" parent="1" vertex="1">
                    <mxGeometry x="760" y="120" width="240" height="50" as="geometry"/>
                </mxCell>
                <mxCell id="9" value="&lt;b&gt;UI Atom&lt;/b&gt;" style="rounded=1;whiteSpace=wrap;html=1;fontSize=12;fillColor=#d5e8d4;strokeColor=#82b366;" parent="1" vertex="1">
                    <mxGeometry x="760" y="310" width="410" height="40" as="geometry"/>
                </mxCell>
                <mxCell id="10" value="&lt;b&gt;Backend Service&lt;/b&gt;" style="rounded=1;whiteSpace=wrap;html=1;fontSize=12;fillColor=#dae8fc;strokeColor=#6c8ebf;" parent="1" vertex="1">
                    <mxGeometry x="1220" y="390" width="250" height="80" as="geometry"/>
                </mxCell>
                <mxCell id="11" value="&lt;b&gt;mongoose&lt;/b&gt;" style="rounded=1;whiteSpace=wrap;html=1;fontSize=12;fillColor=#dae8fc;strokeColor=#6c8ebf;" parent="1" vertex="1">
                    <mxGeometry x="1220" y="480" width="90" height="40" as="geometry"/>
                </mxCell>
                <mxCell id="16" style="edgeStyle=orthogonalEdgeStyle;html=1;exitX=1;exitY=0.5;exitDx=0;exitDy=0;entryX=0.25;entryY=0;entryDx=0;entryDy=0;" parent="1" source="9" target="10" edge="1">
                    <mxGeometry relative="1" as="geometry"/>
                </mxCell>
                <mxCell id="13" value="&lt;b&gt;Teacher Screen&lt;/b&gt;" style="rounded=1;whiteSpace=wrap;html=1;fontSize=12;fillColor=#d5e8d4;strokeColor=#82b366;" parent="1" vertex="1">
                    <mxGeometry x="1030" y="260" width="140" height="40" as="geometry"/>
                </mxCell>
                <mxCell id="14" value="&lt;b&gt;Teacher Page&lt;/b&gt;" style="rounded=1;whiteSpace=wrap;html=1;fontSize=12;fillColor=#d5e8d4;strokeColor=#82b366;" parent="1" vertex="1">
                    <mxGeometry x="1030" y="210" width="140" height="40" as="geometry"/>
                </mxCell>
                <mxCell id="17" value="&lt;b&gt;SSO service&lt;/b&gt;" style="rounded=1;whiteSpace=wrap;html=1;fontSize=12;fillColor=#dae8fc;strokeColor=#6c8ebf;" parent="1" vertex="1">
                    <mxGeometry x="1320" y="480" width="70" height="40" as="geometry"/>
                </mxCell>
                <mxCell id="20" value="&lt;b&gt;Student Screen&lt;/b&gt;" style="rounded=1;whiteSpace=wrap;html=1;fontSize=12;fillColor=#d5e8d4;strokeColor=#82b366;" parent="1" vertex="1">
                    <mxGeometry x="880" y="260" width="140" height="40" as="geometry"/>
                </mxCell>
                <mxCell id="21" value="&lt;b&gt;Student Page&lt;/b&gt;" style="rounded=1;whiteSpace=wrap;html=1;fontSize=12;fillColor=#d5e8d4;strokeColor=#82b366;" parent="1" vertex="1">
                    <mxGeometry x="880" y="210" width="140" height="40" as="geometry"/>
                </mxCell>
                <mxCell id="22" value="&lt;b&gt;font, style&lt;/b&gt;" style="rounded=1;whiteSpace=wrap;html=1;fontSize=12;fillColor=#d5e8d4;strokeColor=#82b366;" parent="1" vertex="1">
                    <mxGeometry x="1070" y="360" width="100" height="30" as="geometry"/>
                </mxCell>
                <mxCell id="23" style="edgeStyle=orthogonalEdgeStyle;html=1;exitX=1;exitY=0.5;exitDx=0;exitDy=0;entryX=0;entryY=0.25;entryDx=0;entryDy=0;" parent="1" source="22" target="10" edge="1">
                    <mxGeometry relative="1" as="geometry">
                        <mxPoint x="1180" y="340" as="sourcePoint"/>
                        <mxPoint x="1220" y="380" as="targetPoint"/>
                    </mxGeometry>
                </mxCell>
                <mxCell id="37" style="edgeStyle=orthogonalEdgeStyle;html=1;exitX=1;exitY=0.5;exitDx=0;exitDy=0;entryX=0;entryY=0.75;entryDx=0;entryDy=0;" parent="1" source="24" target="10" edge="1">
                    <mxGeometry relative="1" as="geometry">
                        <Array as="points">
                            <mxPoint x="930" y="380"/>
                            <mxPoint x="930" y="450"/>
                        </Array>
                    </mxGeometry>
                </mxCell>
                <mxCell id="24" value="&lt;b&gt;Connector&lt;/b&gt;" style="rounded=1;whiteSpace=wrap;html=1;fontSize=12;fillColor=#1ba1e2;strokeColor=#006EAF;fontColor=#ffffff;" parent="1" vertex="1">
                    <mxGeometry x="760" y="360" width="110" height="40" as="geometry"/>
                </mxCell>
                <mxCell id="29" style="edgeStyle=orthogonalEdgeStyle;html=1;exitX=0.5;exitY=1;exitDx=0;exitDy=0;entryX=0.5;entryY=0;entryDx=0;entryDy=0;" parent="1" source="25" target="43" edge="1">
                    <mxGeometry relative="1" as="geometry">
                        <Array as="points">
                            <mxPoint x="845" y="534"/>
                            <mxPoint x="1065" y="534"/>
                        </Array>
                    </mxGeometry>
                </mxCell>
                <mxCell id="25" value="&lt;b&gt;PG&lt;/b&gt;" style="rounded=1;whiteSpace=wrap;html=1;fontSize=12;fillColor=#1ba1e2;strokeColor=#006EAF;fontColor=#ffffff;" parent="1" vertex="1">
                    <mxGeometry x="820" y="410" width="50" height="40" as="geometry"/>
                </mxCell>
                <mxCell id="44" style="edgeStyle=orthogonalEdgeStyle;html=1;exitX=0.5;exitY=1;exitDx=0;exitDy=0;entryX=1;entryY=0.5;entryDx=0;entryDy=0;" parent="1" source="26" target="30" edge="1">
                    <mxGeometry relative="1" as="geometry"/>
                </mxCell>
                <mxCell id="26" value="&lt;b&gt;3rd&lt;/b&gt;" style="rounded=1;whiteSpace=wrap;html=1;fontSize=12;fillColor=#1ba1e2;strokeColor=#006EAF;fontColor=#ffffff;" parent="1" vertex="1">
                    <mxGeometry x="760" y="410" width="50" height="40" as="geometry"/>
                </mxCell>
                <mxCell id="27" value="communication with playground" style="text;html=1;strokeColor=none;fillColor=none;align=left;verticalAlign=middle;whiteSpace=wrap;rounded=0;" parent="1" vertex="1">
                    <mxGeometry x="870" y="505" width="185" height="30" as="geometry"/>
                </mxCell>
                <mxCell id="30" value="communication with 3rd party platform" style="text;html=1;strokeColor=none;fillColor=none;align=left;verticalAlign=middle;whiteSpace=wrap;rounded=0;" parent="1" vertex="1">
                    <mxGeometry x="611" y="520" width="143" height="30" as="geometry"/>
                </mxCell>
                <mxCell id="33" value="&lt;b&gt;Social Media &lt;br&gt;Page&lt;/b&gt;" style="rounded=1;whiteSpace=wrap;html=1;fontSize=12;fillColor=#d5e8d4;strokeColor=#82b366;" parent="1" vertex="1">
                    <mxGeometry x="760" y="210" width="110" height="90" as="geometry"/>
                </mxCell>
                <mxCell id="34" value="&lt;b&gt;img&lt;/b&gt;" style="rounded=1;whiteSpace=wrap;html=1;fontSize=12;fillColor=#d5e8d4;strokeColor=#82b366;" parent="1" vertex="1">
                    <mxGeometry x="960" y="360" width="100" height="30" as="geometry"/>
                </mxCell>
                <mxCell id="35" style="edgeStyle=orthogonalEdgeStyle;html=1;exitX=0.5;exitY=1;exitDx=0;exitDy=0;entryX=0;entryY=0.5;entryDx=0;entryDy=0;" parent="1" source="34" target="10" edge="1">
                    <mxGeometry relative="1" as="geometry">
                        <mxPoint x="1180" y="385" as="sourcePoint"/>
                        <mxPoint x="1230" y="420" as="targetPoint"/>
                    </mxGeometry>
                </mxCell>
                <mxCell id="38" value="" style="shape=curlyBracket;whiteSpace=wrap;html=1;rounded=1;flipH=1;labelPosition=right;verticalLabelPosition=middle;align=left;verticalAlign=middle;size=0.5;" parent="1" vertex="1">
                    <mxGeometry x="1490" y="210" width="20" height="310" as="geometry"/>
                </mxCell>
                <mxCell id="39" value="Standalone docker container&lt;br&gt;&lt;span style=&quot;font-weight: normal;&quot;&gt;(package)&lt;/span&gt;" style="text;html=1;strokeColor=none;fillColor=none;align=center;verticalAlign=middle;whiteSpace=wrap;rounded=0;fontStyle=1" parent="1" vertex="1">
                    <mxGeometry x="1530" y="350" width="100" height="30" as="geometry"/>
                </mxCell>
                <mxCell id="41" value="&lt;b&gt;Playground / autowrx&lt;/b&gt;" style="rounded=1;whiteSpace=wrap;html=1;fontSize=12;fillColor=#b0e3e6;strokeColor=#0e8088;" parent="1" vertex="1">
                    <mxGeometry x="720" y="750" width="400" height="40" as="geometry"/>
                </mxCell>
                <mxCell id="42" value="&lt;b&gt;Addon Manager&lt;/b&gt;" style="rounded=1;whiteSpace=wrap;html=1;fontSize=12;fillColor=#b0e3e6;strokeColor=#0e8088;" parent="1" vertex="1">
                    <mxGeometry x="850" y="710" width="270" height="30" as="geometry"/>
                </mxCell>
                <mxCell id="43" value="&lt;b&gt;LearningJourney Addon&lt;/b&gt;" style="rounded=1;whiteSpace=wrap;html=1;fontSize=12;fillColor=#1ba1e2;strokeColor=#006EAF;fontColor=#ffffff;" parent="1" vertex="1">
                    <mxGeometry x="1010" y="640" width="110" height="60" as="geometry"/>
                </mxCell>
                <mxCell id="45" value="&lt;b&gt;Other Addon&lt;/b&gt;" style="rounded=1;whiteSpace=wrap;html=1;fontSize=12;fillColor=#b0e3e6;strokeColor=#0e8088;" parent="1" vertex="1">
                    <mxGeometry x="890" y="640" width="110" height="60" as="geometry"/>
                </mxCell>
                <mxCell id="46" value="&lt;b&gt;Builtin func&lt;/b&gt;" style="rounded=1;whiteSpace=wrap;html=1;fontSize=12;fillColor=#b0e3e6;strokeColor=#0e8088;" parent="1" vertex="1">
                    <mxGeometry x="720" y="710" width="120" height="30" as="geometry"/>
                </mxCell>
                <mxCell id="47" value="&lt;b&gt;File&lt;br&gt;service&lt;/b&gt;" style="rounded=1;whiteSpace=wrap;html=1;fontSize=12;fillColor=#dae8fc;strokeColor=#6c8ebf;" parent="1" vertex="1">
                    <mxGeometry x="1400" y="480" width="70" height="40" as="geometry"/>
                </mxCell>
                <mxCell id="48" value="&lt;b&gt;iFrame&lt;/b&gt;" style="rounded=1;whiteSpace=wrap;html=1;fontSize=12;fillColor=#b0e3e6;strokeColor=#0e8088;" parent="1" vertex="1">
                    <mxGeometry x="618" y="961" width="292" height="40" as="geometry"/>
                </mxCell>
                <mxCell id="49" value="&lt;b&gt;Parent&lt;/b&gt;" style="rounded=1;whiteSpace=wrap;html=1;fontSize=12;fillColor=#b0e3e6;strokeColor=#0e8088;" parent="1" vertex="1">
                    <mxGeometry x="244" y="961" width="292" height="40" as="geometry"/>
                </mxCell>
                <mxCell id="50" value="user_id&lt;br&gt;user_email" style="text;html=1;strokeColor=none;fillColor=none;align=center;verticalAlign=middle;whiteSpace=wrap;rounded=0;" parent="1" vertex="1">
                    <mxGeometry x="618" y="1021" width="291" height="30" as="geometry"/>
                </mxCell>
                <mxCell id="63" style="edgeStyle=orthogonalEdgeStyle;curved=1;html=1;exitX=1;exitY=0.5;exitDx=0;exitDy=0;entryX=0;entryY=0.5;entryDx=0;entryDy=0;" parent="1" source="53" target="61" edge="1">
                    <mxGeometry relative="1" as="geometry"/>
                </mxCell>
                <mxCell id="64" style="edgeStyle=orthogonalEdgeStyle;curved=1;html=1;exitX=1;exitY=0.5;exitDx=0;exitDy=0;entryX=0;entryY=0.5;entryDx=0;entryDy=0;" parent="1" source="53" target="62" edge="1">
                    <mxGeometry relative="1" as="geometry"/>
                </mxCell>
                <mxCell id="82" style="edgeStyle=orthogonalEdgeStyle;curved=1;html=1;exitX=1;exitY=0.5;exitDx=0;exitDy=0;entryX=0;entryY=0.5;entryDx=0;entryDy=0;" parent="1" source="53" target="81" edge="1">
                    <mxGeometry relative="1" as="geometry"/>
                </mxCell>
                <mxCell id="53" value="&lt;b&gt;Course&lt;/b&gt;" style="rounded=1;whiteSpace=wrap;html=1;fontSize=12;fillColor=#b0e3e6;strokeColor=#0e8088;" parent="1" vertex="1">
                    <mxGeometry x="997" y="1122" width="109" height="40" as="geometry"/>
                </mxCell>
                <mxCell id="55" style="edgeStyle=orthogonalEdgeStyle;html=1;exitX=1;exitY=0.5;exitDx=0;exitDy=0;entryX=0;entryY=0.5;entryDx=0;entryDy=0;curved=1;" parent="1" source="54" target="53" edge="1">
                    <mxGeometry relative="1" as="geometry"/>
                </mxCell>
                <mxCell id="54" value="&lt;b&gt;Path&lt;/b&gt;" style="rounded=1;whiteSpace=wrap;html=1;fontSize=12;fillColor=#b0e3e6;strokeColor=#0e8088;" parent="1" vertex="1">
                    <mxGeometry x="669" y="1238" width="159" height="40" as="geometry"/>
                </mxCell>
                <mxCell id="56" value="&lt;b&gt;Course&lt;/b&gt;" style="rounded=1;whiteSpace=wrap;html=1;fontSize=12;fillColor=#b0e3e6;strokeColor=#0e8088;" parent="1" vertex="1">
                    <mxGeometry x="1000" y="1234" width="110" height="40" as="geometry"/>
                </mxCell>
                <mxCell id="57" style="edgeStyle=orthogonalEdgeStyle;html=1;exitX=1;exitY=0.5;exitDx=0;exitDy=0;entryX=0;entryY=0.5;entryDx=0;entryDy=0;curved=1;" parent="1" source="54" target="56" edge="1">
                    <mxGeometry relative="1" as="geometry">
                        <mxPoint x="838" y="1268" as="sourcePoint"/>
                        <mxPoint x="1010" y="1213" as="targetPoint"/>
                    </mxGeometry>
                </mxCell>
                <mxCell id="60" value="&lt;b&gt;Path&lt;/b&gt;" style="rounded=1;whiteSpace=wrap;html=1;fontSize=12;fillColor=#b0e3e6;strokeColor=#0e8088;" parent="1" vertex="1">
                    <mxGeometry x="669" y="1330" width="159" height="40" as="geometry"/>
                </mxCell>
                <mxCell id="61" value="&lt;b&gt;Lesson&lt;/b&gt;" style="rounded=1;whiteSpace=wrap;html=1;fontSize=12;fillColor=#b0e3e6;strokeColor=#0e8088;" parent="1" vertex="1">
                    <mxGeometry x="1271" y="1106" width="125" height="40" as="geometry"/>
                </mxCell>
                <mxCell id="62" value="&lt;b&gt;Lesson&lt;/b&gt;" style="rounded=1;whiteSpace=wrap;html=1;fontSize=12;fillColor=#b0e3e6;strokeColor=#0e8088;" parent="1" vertex="1">
                    <mxGeometry x="1271" y="1156" width="126" height="40" as="geometry"/>
                </mxCell>
                <mxCell id="71" style="edgeStyle=orthogonalEdgeStyle;curved=1;html=1;exitX=1;exitY=0.5;exitDx=0;exitDy=0;entryX=0;entryY=0.5;entryDx=0;entryDy=0;" parent="1" source="65" target="67" edge="1">
                    <mxGeometry relative="1" as="geometry"/>
                </mxCell>
                <mxCell id="72" style="edgeStyle=orthogonalEdgeStyle;curved=1;html=1;exitX=1;exitY=0.5;exitDx=0;exitDy=0;entryX=0;entryY=0.5;entryDx=0;entryDy=0;" parent="1" source="65" target="69" edge="1">
                    <mxGeometry relative="1" as="geometry"/>
                </mxCell>
                <mxCell id="65" value="&lt;b&gt;Maps&lt;/b&gt;" style="rounded=1;whiteSpace=wrap;html=1;fontSize=12;fillColor=#b0e3e6;strokeColor=#0e8088;" parent="1" vertex="1">
                    <mxGeometry x="1003" y="1330" width="111" height="40" as="geometry"/>
                </mxCell>
                <mxCell id="66" style="edgeStyle=orthogonalEdgeStyle;html=1;exitX=1;exitY=0.5;exitDx=0;exitDy=0;entryX=0;entryY=0.5;entryDx=0;entryDy=0;curved=1;" parent="1" source="54" target="65" edge="1">
                    <mxGeometry relative="1" as="geometry">
                        <mxPoint x="838" y="1268" as="sourcePoint"/>
                        <mxPoint x="1010" y="1283" as="targetPoint"/>
                    </mxGeometry>
                </mxCell>
                <mxCell id="76" style="edgeStyle=orthogonalEdgeStyle;curved=1;html=1;exitX=1;exitY=0.5;exitDx=0;exitDy=0;entryX=0;entryY=0.5;entryDx=0;entryDy=0;" parent="1" source="67" target="74" edge="1">
                    <mxGeometry relative="1" as="geometry"/>
                </mxCell>
                <mxCell id="77" style="edgeStyle=orthogonalEdgeStyle;curved=1;html=1;exitX=1;exitY=0.5;exitDx=0;exitDy=0;" parent="1" source="67" target="73" edge="1">
                    <mxGeometry relative="1" as="geometry"/>
                </mxCell>
                <mxCell id="78" style="edgeStyle=orthogonalEdgeStyle;curved=1;html=1;exitX=1;exitY=0.5;exitDx=0;exitDy=0;entryX=0;entryY=0.5;entryDx=0;entryDy=0;" parent="1" source="67" target="75" edge="1">
                    <mxGeometry relative="1" as="geometry"/>
                </mxCell>
                <mxCell id="80" style="edgeStyle=orthogonalEdgeStyle;curved=1;html=1;exitX=1;exitY=0.5;exitDx=0;exitDy=0;entryX=0;entryY=0.5;entryDx=0;entryDy=0;" parent="1" source="67" target="79" edge="1">
                    <mxGeometry relative="1" as="geometry"/>
                </mxCell>
                <mxCell id="67" value="&lt;b&gt;Nodes&lt;/b&gt;" style="rounded=1;whiteSpace=wrap;html=1;fontSize=12;fillColor=#b0e3e6;strokeColor=#0e8088;" parent="1" vertex="1">
                    <mxGeometry x="1198" y="1287" width="97" height="40" as="geometry"/>
                </mxCell>
                <mxCell id="69" value="&lt;b&gt;Background&lt;/b&gt;" style="rounded=1;whiteSpace=wrap;html=1;fontSize=12;fillColor=#b0e3e6;strokeColor=#0e8088;" parent="1" vertex="1">
                    <mxGeometry x="1198" y="1382" width="97" height="40" as="geometry"/>
                </mxCell>
                <mxCell id="73" value="&lt;b&gt;Location&lt;/b&gt;" style="rounded=1;whiteSpace=wrap;html=1;fontSize=12;fillColor=#b0e3e6;strokeColor=#0e8088;" parent="1" vertex="1">
                    <mxGeometry x="1433" y="1248" width="97" height="40" as="geometry"/>
                </mxCell>
                <mxCell id="74" value="&lt;b&gt;Type&lt;/b&gt;" style="rounded=1;whiteSpace=wrap;html=1;fontSize=12;fillColor=#b0e3e6;strokeColor=#0e8088;" parent="1" vertex="1">
                    <mxGeometry x="1433" y="1297" width="97" height="40" as="geometry"/>
                </mxCell>
                <mxCell id="75" value="&lt;b&gt;Icon&lt;/b&gt;" style="rounded=1;whiteSpace=wrap;html=1;fontSize=12;fillColor=#b0e3e6;strokeColor=#0e8088;" parent="1" vertex="1">
                    <mxGeometry x="1433" y="1345" width="97" height="40" as="geometry"/>
                </mxCell>
                <mxCell id="79" value="&lt;b&gt;course_id&lt;/b&gt;" style="rounded=1;whiteSpace=wrap;html=1;fontSize=12;fillColor=#b0e3e6;strokeColor=#0e8088;" parent="1" vertex="1">
                    <mxGeometry x="1433" y="1401" width="97" height="40" as="geometry"/>
                </mxCell>
                <mxCell id="81" value="&lt;b&gt;meta-data&lt;/b&gt;" style="rounded=1;whiteSpace=wrap;html=1;fontSize=12;fillColor=#b0e3e6;strokeColor=#0e8088;" parent="1" vertex="1">
                    <mxGeometry x="1271" y="1054" width="124" height="40" as="geometry"/>
                </mxCell>
                <mxCell id="83" value="&lt;b&gt;achievement&lt;/b&gt;" style="rounded=1;whiteSpace=wrap;html=1;fontSize=12;fillColor=#b0e3e6;strokeColor=#0e8088;" parent="1" vertex="1">
                    <mxGeometry x="1271" y="1007" width="124" height="40" as="geometry"/>
                </mxCell>
                <mxCell id="84" style="edgeStyle=orthogonalEdgeStyle;curved=1;html=1;exitX=1;exitY=0.5;exitDx=0;exitDy=0;entryX=0;entryY=0.5;entryDx=0;entryDy=0;" parent="1" source="53" target="83" edge="1">
                    <mxGeometry relative="1" as="geometry">
                        <mxPoint x="1116" y="1152" as="sourcePoint"/>
                        <mxPoint x="1281" y="1084" as="targetPoint"/>
                    </mxGeometry>
                </mxCell>
                <mxCell id="85" value="&lt;b&gt;course_id&lt;/b&gt;" style="rounded=1;whiteSpace=wrap;html=1;fontSize=12;fillColor=#b0e3e6;strokeColor=#0e8088;" parent="1" vertex="1">
                    <mxGeometry x="1271" y="956" width="124" height="40" as="geometry"/>
                </mxCell>
                <mxCell id="86" style="edgeStyle=orthogonalEdgeStyle;curved=1;html=1;entryX=0;entryY=0.5;entryDx=0;entryDy=0;" parent="1" source="53" target="85" edge="1">
                    <mxGeometry relative="1" as="geometry">
                        <mxPoint x="1116" y="1152" as="sourcePoint"/>
                        <mxPoint x="1281" y="1037" as="targetPoint"/>
                    </mxGeometry>
                </mxCell>
                <mxCell id="88" value="Landing page for Learning Journey" style="rounded=0;whiteSpace=wrap;html=1;fillColor=#f8cecc;strokeColor=#b85450;fontStyle=1" vertex="1" parent="1">
                    <mxGeometry x="760" y="50" width="703" height="42" as="geometry"/>
                </mxCell>
            </root>
        </mxGraphModel>
    </diagram>
</mxfile>